<?xml version="1.0" encoding="UTF-8" standalone="no"?>
<svg
   xmlns:dc="http://purl.org/dc/elements/1.1/"
   xmlns:cc="http://creativecommons.org/ns#"
   xmlns:rdf="http://www.w3.org/1999/02/22-rdf-syntax-ns#"
   xmlns:svg="http://www.w3.org/2000/svg"
   xmlns="http://www.w3.org/2000/svg"
   id="svg1076"
   version="1.1"
   viewBox="0 0 13.149792 11.879791"
   height="11.879791mm"
   width="13.149792mm">
  <defs
     id="defs1070" />
  <metadata
     id="metadata1073">
    <rdf:RDF>
      <cc:Work
         rdf:about="">
        <dc:format>image/svg+xml</dc:format>
        <dc:type
           rdf:resource="http://purl.org/dc/dcmitype/StillImage" />
        <dc:title></dc:title>
      </cc:Work>
    </rdf:RDF>
  </metadata>
  <g
     transform="translate(61.75942,27.195848)"
     id="layer1">
    <g
       id="g118"
       transform="matrix(0.26458333,0,0,0.26458333,-62.579628,-32.196473)">
      <g
         id="g114">
        <path
           style="fill:#3f5c59"
           id="path100"
           d="m 46.4,41.7 c 1.2,0 1.9,0.6 1.9,1.4 0,0.4 -0.2,1 -0.6,1.5 l -7.4,8.8 h 5.5 l 5.1,-6 c 1.3,-1.5 1.9,-3.1 1.9,-4.6 0,-2.9 -2.5,-5.3 -6.1,-5.3 h -0.8 v 4.2 c 0,0 0.5,0 0.5,0 z"
           class="st0" />
        <path
           style="fill:#3f5c59"
           id="path102"
           d="M 9.4,41.7 H 10 V 37.5 H 9.2 c -3.6,0 -6.1,2.3 -6.1,5.3 0,1.5 0.6,3.1 1.9,4.6 l 5.1,6 h 5.5 L 8.2,44.6 C 7.8,44.1 7.6,43.6 7.6,43.1 7.5,42.2 8.2,41.7 9.4,41.7 Z"
           class="st0" />
        <path
           style="fill:#3f5c59"
           id="path104"
           d="m 18.1,41.7 h 4.8 v -4.2 h -4.6 c -4,0 -6.5,2.3 -6.5,5.3 0,1.5 0.6,3.1 1.9,4.6 l 5,6 h 5.6 l -7.4,-8.8 c -0.4,-0.5 -0.6,-1 -0.6,-1.5 -0.1,-0.9 0.6,-1.4 1.8,-1.4 z"
           class="st0" />
        <path
           style="fill:#3f5c59"
           id="path106"
           d="m 37.7,41.7 c 1.2,0 1.9,0.6 1.9,1.4 0,0.4 -0.2,1 -0.6,1.5 l -7.4,8.8 h 5.6 l 5,-6 c 1.3,-1.5 1.9,-3.1 1.9,-4.6 0,-2.9 -2.5,-5.3 -6.5,-5.3 H 33 v 4.2 c 0,0 4.7,0 4.7,0 z"
           class="st0" />
        <rect
           style="fill:#3f5c59"
           id="rect108"
           height="15.9"
           width="4.1999998"
           class="st0"
           y="37.400002"
           x="25.799999" />
        <rect
           style="fill:#3f5c59"
           id="rect110"
           height="7.5999999"
           width="32.700001"
           class="st0"
           y="56.200001"
           x="11.6" />
        <circle
           style="fill:#3f5c59"
           id="circle112"
           r="4"
           cy="31.6"
           cx="27.9"
           class="st0" />
      </g>
      <polygon
         style="fill:#3f5c59"
         id="polygon116"
         points="29,18.9 26.8,18.9 26.8,21.3 24.2,21.3 24.2,23.3 26.8,23.3 26.8,25.7 29,25.7 29,23.3 31.6,23.3 31.6,21.3 29,21.3 "
         class="st0" />
    </g>
  </g>
</svg>
