<?xml version="1.0" encoding="UTF-8" standalone="no"?>
<!-- Generated by IcoMoon.io -->
<svg id="svg2" xmlns:rdf="http://www.w3.org/1999/02/22-rdf-syntax-ns#" xmlns="http://www.w3.org/2000/svg" height="248.77" viewBox="0 0 248.769 248.76894" width="248.77" version="1.1" xmlns:cc="http://creativecommons.org/ns#" xmlns:dc="http://purl.org/dc/elements/1.1/">
 <metadata id="metadata12">
  <rdf:RDF>
   <cc:Work rdf:about="">
    <dc:format>image/svg+xml</dc:format>
    <dc:type rdf:resource="http://purl.org/dc/dcmitype/StillImage"/>
    <dc:title/>
   </cc:Work>
  </rdf:RDF>
 </metadata>
 <g id="g4149" transform="translate(-.0000020085 -81.552)">
  <g id="g4" transform="translate(0 163.1)">
   <g id="g4691" transform="translate(-110.26,-16.822)">
    <path id="path4693" d="m327.18 100.61c0-0.332 0.133-0.621 0.4-0.863 0.266-0.244 0.573-0.363 0.919-0.363 0.36 0 0.675 0.119 0.942 0.363 0.269 0.242 0.401 0.531 0.401 0.863s-0.133 0.623-0.401 0.871c-0.268 0.254-0.582 0.377-0.942 0.377-0.346 0-0.653-0.123-0.919-0.377-0.267-0.248-0.4-0.539-0.4-0.871z"/>
    <path id="path4695" d="m333.03 90.406c0.732-1.332 1.76-2.363 3.083-3.098 1.324-0.73 2.787-1.098 4.39-1.098h3.971v-4.127h2.535v19.771h-6.375c-2.369 0-4.381-0.744-6.037-2.236-1.653-1.492-2.48-3.355-2.48-5.586-0.001-1.264 0.302-2.473 0.913-3.626zm11.444-1.947h-3.632c-1.672 0-3.093 0.531-4.259 1.598-1.167 1.068-1.751 2.391-1.751 3.977 0 1.566 0.571 2.842 1.713 3.824 1.14 0.982 2.546 1.475 4.219 1.475h3.71v-10.874z"/>
    <path id="path4697" d="m353.57 93.559 5.461 8.297h-3.004l-4.704-7.248v7.248h-2.691v-19.772h2.691v10.398l4.704-6.498h3.004l-5.461 7.575z"/>
   </g>
   <g id="g4803" transform="translate(-110.26,-16.822)">
    <path id="path4805" d="m208 57.537c0.564 2.57 0.866 5.242 0.866 7.984 0 2.59-0.267 5.115-0.771 7.553-0.798-2.495-1.23-5.153-1.23-7.916-0.002-2.652 0.397-5.21 1.135-7.621m-36.11-28.989c12.575 0 23.685 6.28 30.364 15.875-2.659 3.922-4.586 8.378-5.583 13.18-3.347-10.495-13.179-18.094-24.781-18.094-14.367 0-26.016 11.648-26.016 26.012 0 14.367 11.648 26.01 26.016 26.01 11.712 0 21.616-7.748 24.875-18.391 1.055 4.781 3.032 9.223 5.741 13.113-6.652 9.797-17.883 16.238-30.616 16.238-20.422 0-36.977-16.553-36.977-36.971s16.554-36.972 36.977-36.972z" fill-rule="evenodd" clip-rule="evenodd"/>
   </g>
   <g id="g4807" transform="translate(-110.26,-16.822)">
    <path id="path4809" d="m110.26 101.04h11.652v-46.435l9.241-0.06c1.077-3.559 2.677-6.891 4.712-9.908h-13.953v-4.011c0-0.901 0.336-2.333 1.001-4.257 0.665-1.943 1.312-3.287 1.94-4.064 3.139-3.798 8.557-5.691 16.244-5.691h4.354 4.357v-9.543c-0.471 0-2.982-0.071-7.534-0.21-3.296-0.071-6.04-0.036-8.238 0.106-2.981 0.142-5.534 0.496-7.652 1.058-4.785 1.273-8.671 3.748-11.652 7.422-2.983 3.676-4.474 7.743-4.474 12.192v63.401z"/>
   </g>
   <g id="g4811" transform="translate(-110.26,-16.822)">
    <path id="path4813" d="m235.79 39.51c14.363 0 26.014 11.648 26.014 26.012 0 14.367-11.65 26.01-26.014 26.01-14.368 0-26.017-11.643-26.017-26.01 0-14.364 11.649-26.012 26.017-26.012m0-10.962c20.415 0 36.975 16.555 36.975 36.973s-16.56 36.971-36.975 36.971c-20.42 0-36.979-16.553-36.979-36.971s16.559-36.973 36.979-36.973z" fill-rule="evenodd" clip-rule="evenodd"/>
   </g>
   <g id="g4815" transform="translate(-110.26,-16.822)">
    <path id="path4817" d="m299.03 39.51c14.364 0 26.014 11.648 26.014 26.012 0 14.367-11.649 26.01-26.014 26.01-14.363 0-26.013-11.643-26.013-26.01 0.001-14.364 11.65-26.012 26.013-26.012m0-10.962c20.42 0 36.976 16.555 36.976 36.973s-16.556 36.971-36.976 36.971-36.977-16.553-36.977-36.971 16.557-36.973 36.977-36.973z" fill-rule="evenodd" clip-rule="evenodd"/>
   </g>
  </g>
 </g>
 <rect id="rect4819" height="144" width="432" y="273.19" x="73.605" fill="none"/>
</svg>
